PathFileType	4	(X/Y/Z)	 s09c0303.trc
DataRate	CameraRate	NumFrames	NumMarkers	Units	OrigDataRate	OrigDataStartFrame	OrigNumFrames
200	200	7	50	mm	200	251	2000
Frame#	Time	racr			lacr			c7			jug			rlel			rdr			llel			ldr			s2			lic			ric			lasi			rasi			rpsi			lpsi			rgt			lgt			rth1			rth2			rth3			rth4			rlfc			rmfc			rsh1			rsh2			rsh3			rsh4			rlmal			rmmal			rcal			rtoe			rmt5			lth1			lth2			lth4			lth3			llfc			lmfc			llmal			lmmal			lcal			lmt5			lsh1			lsh2			lsh3			lsh4			ltoe			SBIKE			LBIKE			RBIKE			
		X1	Y1	Z1	X2	Y2	Z2	X3	Y3	Z3	X4	Y4	Z4	X5	Y5	Z5	X6	Y6	Z6	X7	Y7	Z7	X8	Y8	Z8	X9	Y9	Z9	X10	Y10	Z10	X11	Y11	Z11	X12	Y12	Z12	X13	Y13	Z13	X14	Y14	Z14	X15	Y15	Z15	X16	Y16	Z16	X17	Y17	Z17	X18	Y18	Z18	X19	Y19	Z19	X20	Y20	Z20	X21	Y21	Z21	X22	Y22	Z22	X23	Y23	Z23	X24	Y24	Z24	X25	Y25	Z25	X26	Y26	Z26	X27	Y27	Z27	X28	Y28	Z28	X29	Y29	Z29	X30	Y30	Z30	X31	Y31	Z31	X32	Y32	Z32	X33	Y33	Z33	X34	Y34	Z34	X35	Y35	Z35	X36	Y36	Z36	X37	Y37	Z37	X38	Y38	Z38	X39	Y39	Z39	X40	Y40	Z40	X41	Y41	Z41	X42	Y42	Z42	X43	Y43	Z43	X44	Y44	Z44	X45	Y45	Z45	X46	Y46	Z46	X47	Y47	Z47	X48	Y48	Z48	X49	Y49	Z49	X50	Y50	Z50	
251	1.2550	458.359463	1281.320806	-95.737134	443.609814	1274.542876	-405.332884	412.023317	1305.099375	-246.838321	423.655984	1170.716670	-244.805125	490.766542	1037.866653	-7.121473	692.679815	878.233551	-48.765958	450.923569	998.743063	-472.892466	686.797353	887.808522	-438.063021	-64.005918	1133.360108	-236.442007	76.914183	1128.045337	-382.094248	72.286396	1115.389320	-83.770067	118.657507	1070.644169	-361.429677	111.220160	1057.563731	-103.397984	-35.411494	1158.946584	-174.837596	-32.598949	1168.829159	-283.965584	28.965511	972.879120	-43.428175	37.670986	1010.522674	-426.865903	118.565479	864.536097	-46.014322	190.971030	815.154450	-48.910059	225.219975	733.851313	-59.999989	217.626410	835.657188	-64.913958	273.745689	647.737159	-90.318425	259.472992	635.973896	-187.988287	203.417696	571.478619	-63.303988	174.516512	487.935015	-80.137302	107.574164	430.566023	-82.031754	194.844090	478.813471	-113.227875	47.030753	351.112692	-85.672287	51.914652	363.993198	-164.494363	-37.076430	333.916938	-124.120891	218.818980	267.234827	-123.679698	133.086830	269.170009	-60.491310	153.959607	936.933024	-425.817292	237.250378	921.287839	-418.089873	253.659407	953.336826	-406.393952	305.615815	862.423881	-415.483134	384.409753	796.445261	-397.239530	403.410115	786.138643	-298.778926	328.325788	437.762752	-409.633402	338.574369	447.991378	-333.915961	262.906331	380.535920	-368.889297	434.166294	369.943599	-436.869488	368.172491	697.762985	-420.866777	377.411006	611.044275	-412.514727	340.436032	530.548443	-412.210017	402.729924	609.699377	-382.377523	520.169767	419.454217	-369.891993	-65.243196	850.825192	-239.470067	20.662410	84.529933	-442.194543	20.979225	83.953836	-43.774865	
252	1.2600	460.699097	1282.431346	-95.854141	445.593147	1275.122229	-406.554404	414.773015	1306.093529	-247.413265	426.607980	1171.751142	-245.199743	491.740065	1038.098253	-7.442892	692.746802	878.193229	-48.920642	451.463308	998.692519	-472.445325	687.006931	887.783494	-437.894760	-61.432352	1134.526496	-237.450332	79.889260	1128.850046	-382.409761	74.516763	1116.756234	-84.103852	121.470517	1071.256932	-361.568590	113.251852	1058.850075	-103.702014	-32.963229	1160.179255	-175.380881	-29.855026	1169.983960	-284.543263	30.905757	974.349836	-43.717117	40.718786	1011.374313	-427.018852	120.404186	865.973172	-45.932235	192.839508	816.658874	-48.648161	227.081954	735.369668	-59.529250	219.440400	837.226228	-64.767260	275.685457	648.894683	-89.784597	261.600787	637.312791	-187.507854	205.109985	572.911302	-62.852186	175.535783	489.751835	-79.890517	108.204818	432.806800	-81.907759	195.862186	480.571325	-113.019363	47.233061	353.463408	-85.725516	50.886597	367.428282	-163.551167	-36.960141	337.154795	-124.142858	218.514035	268.687261	-123.566165	132.723133	271.017276	-60.471339	156.198649	936.518766	-425.719944	239.325918	919.890688	-417.981769	256.096206	951.719772	-406.281786	306.944775	860.261347	-415.210594	384.785866	792.967582	-397.263470	403.709234	782.640416	-298.801574	328.618083	434.533772	-409.582749	338.658604	445.100871	-333.746564	263.416345	376.889400	-368.834559	434.519350	367.500720	-436.832638	368.354146	694.222833	-420.971681	377.622427	607.575552	-412.572006	340.704776	527.008775	-412.213452	402.905376	606.223362	-382.362791	520.365037	417.765531	-370.184873	-65.172784	850.845794	-239.475972	20.655553	84.517856	-442.212039	20.957044	83.962691	-43.791181	
253	1.2650	463.225188	1283.441312	-96.114164	447.813960	1275.806674	-407.624529	417.711316	1307.116819	-248.043834	428.708770	1172.567359	-245.703488	492.472181	1038.462498	-7.712781	692.761932	878.159255	-49.027651	451.956534	998.639858	-472.249351	687.218852	887.752696	-437.741158	-58.695363	1135.715047	-238.458137	82.990451	1129.671230	-382.735005	76.890968	1118.280014	-84.377833	124.482447	1071.999686	-361.652535	115.512559	1060.220721	-103.922347	-30.344067	1161.494465	-175.895161	-26.988924	1171.238325	-285.155177	33.479163	976.022657	-43.566535	43.897534	1012.246149	-427.186536	122.429726	867.784901	-45.706872	194.980740	818.302153	-48.348886	229.151266	737.055124	-59.007493	221.518568	838.843360	-64.663821	277.779192	650.199309	-89.128710	263.886928	638.640226	-186.959903	206.722015	574.466536	-62.237471	176.603821	491.503324	-79.534764	108.895701	435.107676	-81.719579	196.942849	482.225295	-112.604353	47.323338	356.215777	-85.614756	51.151214	370.012266	-163.410127	-36.796060	340.321949	-124.171858	218.093145	270.070260	-123.484591	132.315913	272.948467	-60.489862	158.627676	936.309971	-425.637474	241.499708	918.682520	-417.912570	258.629707	950.335481	-406.224392	308.435634	858.187209	-415.035338	385.251603	789.669299	-397.294613	404.497741	779.394262	-298.824415	328.839892	431.388720	-409.724508	338.835124	442.214123	-333.680811	263.805726	373.603903	-368.791148	435.049057	364.947313	-436.886935	368.650623	690.723388	-420.980420	377.608483	604.425856	-412.847141	341.073919	523.600782	-412.200389	403.147487	602.943317	-382.352595	520.531654	416.287781	-370.332201	-65.098735	850.876771	-239.513152	20.664746	84.514540	-442.234451	20.948054	83.978787	-43.810321	
254	1.2700	466.018636	1284.391360	-96.490258	450.188003	1276.522692	-408.563498	420.872737	1308.123250	-248.607211	431.892813	1173.597123	-246.242613	493.113446	1038.782279	-7.807126	692.795624	878.159059	-49.107077	452.492584	998.567067	-472.196658	687.415351	887.723096	-437.582098	-55.763147	1137.065334	-239.125443	86.207656	1130.509186	-383.064450	79.418208	1119.856260	-84.685256	127.513102	1072.596146	-361.742551	118.218967	1061.853253	-104.012204	-27.687244	1162.847996	-176.497032	-23.907957	1172.627810	-285.869774	35.948315	977.804174	-43.724665	47.308183	1013.139001	-427.321556	124.836548	869.700263	-45.422516	197.431094	820.176376	-48.066664	231.490056	738.848439	-58.440989	223.800618	840.609531	-64.618617	280.026784	651.447054	-88.431413	266.368181	639.902248	-186.154039	208.236639	576.189691	-61.626357	177.667638	493.567012	-79.070028	109.696423	437.370695	-81.447378	198.137019	484.043567	-112.071160	47.417781	359.172201	-85.578283	51.385194	372.747102	-163.215757	-36.469987	343.723025	-124.216111	217.983968	271.214553	-123.408576	132.084103	274.776895	-60.472214	161.087418	936.308920	-425.633989	243.838308	917.677024	-417.810573	261.286626	949.156516	-406.128170	310.000749	856.394308	-415.056218	385.848721	786.644026	-397.307936	405.027015	776.581393	-298.196711	329.064018	428.483367	-409.808731	338.903369	439.586299	-333.684998	264.202768	370.432809	-368.983195	435.602356	362.581320	-436.852491	368.971992	687.707887	-421.043708	377.987448	601.354620	-412.947009	341.382444	520.554152	-412.166059	403.441273	599.935259	-382.303497	520.654106	414.634710	-370.298710	-65.019931	850.905888	-239.503142	20.681007	84.534666	-442.215899	20.958096	83.970122	-43.821565	
255	1.2750	468.957389	1285.194185	-96.908285	452.805342	1277.315093	-409.287228	424.153579	1309.029669	-249.299785	434.685204	1174.402410	-246.817647	493.570721	1038.972237	-7.582314	692.855773	878.090354	-49.206299	453.026154	998.544894	-472.243296	687.596587	887.759970	-437.457504	-52.832575	1138.428844	-240.062908	89.530644	1131.365966	-383.391880	82.078905	1121.547464	-84.939448	130.672828	1073.310729	-361.781318	120.576615	1063.238000	-104.136564	-24.829834	1164.333748	-177.065537	-20.841344	1174.066949	-286.360625	38.605742	979.657344	-43.912380	50.835089	1014.126774	-427.485348	127.595701	871.850203	-45.164479	200.042207	822.332109	-47.835075	233.974767	740.817961	-57.836775	226.433572	842.511115	-64.668790	282.321688	652.662299	-87.679302	268.794787	641.331788	-185.542038	209.795808	578.047402	-61.211697	178.763523	495.572128	-78.542809	110.514548	439.749698	-81.194576	199.364617	485.888868	-111.431994	47.675910	362.049662	-85.481873	52.112738	375.412903	-163.148998	-35.960331	347.103432	-124.194937	217.666903	272.356069	-123.385466	131.926463	276.608778	-60.435088	163.796005	936.450222	-425.651683	246.254567	916.826086	-417.713319	264.044126	948.034913	-405.730633	311.654259	854.794386	-415.142509	386.902472	784.222315	-397.892323	405.587433	773.200616	-298.882045	329.311575	425.757338	-409.960017	339.179812	437.261663	-333.690839	264.684061	367.235368	-369.019577	436.151937	360.311454	-436.816131	369.354053	685.030495	-421.145156	378.325025	598.718103	-413.026577	341.735453	517.948155	-412.285561	403.756873	597.313148	-382.400963	520.921045	412.844842	-370.580408	-64.986282	850.886846	-239.497655	20.678920	84.415809	-442.296994	20.984913	83.965725	-43.795066	
256	1.2800	472.182728	1285.899002	-97.438949	455.611822	1278.088265	-409.666819	427.709124	1309.934155	-249.944387	437.554676	1175.205791	-247.551753	494.112870	1039.252837	-7.331441	692.835168	878.069242	-49.314022	453.568054	998.575674	-472.463222	687.765562	887.773918	-437.419198	-49.680995	1139.828062	-241.059554	92.948980	1132.245141	-383.710936	84.788471	1123.305569	-85.253886	133.978748	1074.057297	-361.721633	123.221955	1064.938740	-104.290398	-21.900810	1165.861429	-177.640407	-17.486000	1175.396071	-286.861601	41.513772	981.613457	-43.977916	54.481798	1015.217896	-427.594364	130.571754	874.139302	-44.925966	203.078552	824.480746	-47.519675	236.779346	742.887368	-57.187346	229.330975	844.602568	-64.665587	284.561506	654.129462	-86.868778	271.286640	642.747428	-184.776204	211.372680	580.006807	-60.725763	179.935884	497.558711	-78.053248	111.459518	442.254179	-80.875713	200.702851	487.721656	-110.813199	48.302363	364.880767	-84.852309	52.815299	378.296057	-162.842326	-35.436187	350.709644	-124.184129	217.148922	272.689339	-124.031090	131.850624	278.406047	-60.409686	166.499216	937.109454	-426.013879	248.723917	916.254647	-417.550662	266.913760	947.067589	-405.516511	313.392948	853.492917	-415.125289	387.664300	781.914606	-397.898625	406.253058	770.720603	-298.910657	329.647283	423.118558	-410.172729	339.775452	434.274544	-333.183718	265.069490	364.521543	-369.048742	436.664872	358.131189	-436.952479	369.718509	682.650380	-421.229730	378.668104	596.390437	-413.151177	342.083516	515.563683	-412.387956	404.223761	594.776007	-382.573218	521.191373	411.099609	-370.612735	-64.942026	850.896614	-239.525672	20.697524	84.530749	-442.215804	20.991852	83.988681	-43.806156	
257	1.2850	475.684430	1286.338214	-98.050886	458.689971	1278.710946	-410.134287	431.426309	1310.755897	-250.601197	440.567809	1176.042816	-248.357353	494.674946	1039.559749	-7.080831	692.828611	878.035840	-49.424176	454.007698	998.760868	-472.799966	687.842792	887.757931	-437.451361	-46.519723	1141.241528	-242.450487	96.452056	1133.151478	-384.015559	87.659645	1125.069508	-85.632254	137.422458	1074.900892	-361.663725	126.388980	1066.569274	-104.198178	-18.846423	1167.474610	-178.195793	-14.235205	1176.686025	-287.522988	44.624648	983.761002	-44.046938	58.156919	1016.337565	-427.658921	133.884974	876.595755	-44.713966	206.291251	826.792430	-47.296048	239.843695	745.143460	-56.540644	232.821942	847.281854	-64.231823	287.034091	655.532007	-85.967317	273.803173	644.057260	-183.842299	213.162546	581.904907	-60.088055	181.216056	499.573660	-77.530472	112.478682	444.709765	-80.489991	202.121476	489.610691	-110.186211	49.324537	367.062902	-85.120278	55.738352	380.079944	-163.916555	-34.710590	354.500421	-124.104165	217.074633	273.772386	-124.072220	131.803820	280.249663	-60.390815	169.339246	937.633672	-426.105544	251.279543	915.828586	-417.408712	269.770143	946.277044	-405.097299	315.198953	852.306312	-415.137518	388.553735	779.841795	-397.998928	407.001978	768.406347	-298.931580	330.072037	420.692121	-410.339666	340.103836	431.854434	-333.264751	265.603279	361.962089	-369.167952	437.094554	355.999508	-437.116922	370.215259	680.601979	-421.355119	379.053768	594.218299	-413.377125	342.400525	513.401551	-412.553364	404.769269	592.574425	-382.907040	521.620315	409.138905	-370.860740	-64.896544	850.925993	-239.599007	20.714867	84.531102	-442.215012	21.000057	84.010116	-43.801849	
